<svg width="589" height="47" viewBox="0 0 589 47" fill="none" xmlns="http://www.w3.org/2000/svg">
<g clip-path="url(#clip0_43_164)">
<path d="M1.23621 34.2649C-1.05229 35.7808 -0.287801 38.6597 4.58704 40.0275C9.61576 41.6966 15.1012 42.1509 20.4377 41.2423C20.7405 41.2423 21.0483 41.0892 21.2022 41.0892V35.929L16.0196 37.598C14.0389 38.2054 12.0581 38.3585 10.0774 37.8992C8.55343 37.4449 8.85624 36.5364 10.688 35.7759L21.2022 32.1366V26.5319L6.56775 31.5341C4.74093 32.1415 2.90914 33.0501 1.23621 34.2649ZM36.5912 11.5204V26.2258C42.8411 29.2577 47.7159 26.2258 47.7159 18.3447C47.7159 10.3106 44.8218 6.67125 36.4373 3.79239C32.0192 2.27149 27.4471 0.908594 22.8751 0V43.815L33.5432 47V10.1575C33.5432 8.48844 33.5432 7.27863 34.7644 7.73293C36.4423 8.18722 36.5912 9.85627 36.5912 11.5204ZM56.4082 30.7737C51.9901 29.2577 47.2642 28.6503 42.6922 29.1046C40.2548 29.2577 37.9663 29.8651 35.8317 30.6206L35.375 30.7737V36.6894L45.2835 33.0501C47.2642 32.4427 49.2449 32.2897 51.2256 32.7489C52.7496 33.2032 52.4468 34.1118 50.615 34.8722L35.375 40.4818V46.2445L56.4082 38.5116C57.9323 37.9042 59.3024 37.1487 60.5236 35.9339C61.5909 34.413 61.1342 32.2897 56.4082 30.7737Z" fill="white"/>
<g clip-path="url(#clip1_43_164)">
<path d="M1.23621 34.2649C-1.05229 35.7808 -0.287801 38.6597 4.58704 40.0275C9.61576 41.6966 15.1012 42.1509 20.4377 41.2423C20.7405 41.2423 21.0483 41.0892 21.2022 41.0892V35.929L16.0196 37.598C14.0389 38.2054 12.0581 38.3585 10.0774 37.8992C8.55343 37.4449 8.85624 36.5364 10.688 35.7759L21.2022 32.1366V26.5319L6.56775 31.5341C4.74093 32.1415 2.90914 33.0501 1.23621 34.2649ZM36.5912 11.5204V26.2258C42.8411 29.2577 47.7159 26.2258 47.7159 18.3447C47.7159 10.3106 44.8218 6.67125 36.4373 3.79239C32.0192 2.27149 27.4471 0.908594 22.8751 0V43.815L33.5432 47V10.1575C33.5432 8.48844 33.5432 7.27863 34.7644 7.73293C36.4423 8.18722 36.5912 9.85627 36.5912 11.5204ZM56.4082 30.7737C51.9901 29.2577 47.2642 28.6503 42.6922 29.1046C40.2548 29.2577 37.9663 29.8651 35.8317 30.6206L35.375 30.7737V36.6894L45.2835 33.0501C47.2642 32.4427 49.2449 32.2897 51.2256 32.7489C52.7496 33.2032 52.4468 34.1118 50.615 34.8722L35.375 40.4818V46.2445L56.4082 38.5116C57.9323 37.9042 59.3024 37.1487 60.5236 35.9339C61.5909 34.413 61.1342 32.2897 56.4082 30.7737Z" fill="white"/>
</g>
</g>
<path d="M138.503 8.82963C134.119 8.82963 130.564 12.3847 130.564 16.7693V30.3176C130.564 32.7955 128.553 34.8056 126.076 34.8056H110.792V38.1703H128.97C133.354 38.1703 136.909 34.6152 136.909 30.2306V16.6823C136.909 14.2043 138.919 12.1943 141.397 12.1943H156.967V8.82963H138.503ZM70 8.82963V12.1943H101.927C104.473 12.1943 106.535 14.256 106.535 16.8019C106.535 19.3479 104.473 21.4096 101.927 21.4096H77.9397C73.555 21.4096 70 24.9647 70 29.3493V38.173H76.3458V29.2623C76.3458 26.7843 78.3558 24.7743 80.8338 24.7743H104.908C109.312 24.7743 112.881 21.2056 112.881 16.8019C112.881 12.3983 109.312 8.82963 104.908 8.82963H70ZM163.081 8.82963V19.7858C163.081 22.5384 165.314 24.7715 168.067 24.7715H194.636C197.408 24.7715 199.654 27.0183 199.654 29.7899C199.654 32.5616 197.408 34.8083 194.636 34.8083H163.081V38.173H197.617C202.246 38.173 206 34.4194 206 29.7899C206 25.1605 202.246 21.4069 197.617 21.4069H171.429C170.322 21.4069 169.424 20.5093 169.424 19.4023V12.1915H204.847V8.8269H163.081V8.82963Z" fill="white"/>
<g clip-path="url(#clip2_43_164)">
<path d="M280.253 41.0541C277.542 40.7943 274.797 39.8207 272.439 38.2821C270.463 36.9934 270.017 36.4628 270.017 35.4053C270.017 33.2809 272.353 29.5594 276.35 25.318C278.619 22.9084 281.78 20.0857 282.122 20.1618C282.787 20.3103 288.101 25.4939 290.091 27.9345C293.237 31.7922 294.683 34.9521 293.948 36.3606C293.389 37.4312 289.924 39.5241 287.378 40.3279C285.279 40.9907 282.523 41.2713 280.253 41.0541ZM267.348 33.1967C265.706 30.6775 264.876 28.1976 264.476 24.6107C264.344 23.4263 264.39 22.7493 264.776 20.3177C265.256 17.2904 266.981 13.7845 269.055 11.6286C269.938 10.7122 270.016 10.6877 271.093 11.0517C272.398 11.4936 273.793 12.4574 275.957 14.4145L277.221 15.5575L276.53 16.4043C273.328 20.3357 269.948 25.9116 268.675 29.3602C267.984 31.2338 267.706 33.1157 268.005 33.8991C268.205 34.4284 268.021 34.2312 267.346 33.1979L267.348 33.1967ZM296.17 33.625C296.332 32.833 296.127 31.3791 295.646 29.9121C294.605 26.7355 291.124 20.8261 287.928 16.8081L286.921 15.5431L288.01 14.5437C289.432 13.2387 290.418 12.4574 291.484 11.7934C292.323 11.2698 293.524 10.8063 294.04 10.8063C294.358 10.8063 295.479 11.9722 296.383 13.2404C297.784 15.204 298.814 17.589 299.336 20.0681C299.673 21.6717 299.701 25.0999 299.39 26.6995C299.132 28.0118 298.592 29.7128 298.069 30.8669C297.672 31.7313 296.694 33.4106 296.265 33.9571C296.044 34.2382 296.044 34.2378 296.166 33.6315L296.17 33.625ZM280.544 10.2066C279.068 9.45792 276.793 8.65406 275.536 8.43724C275.096 8.36156 274.345 8.3186 273.867 8.34315C272.83 8.39551 272.876 8.34151 274.539 7.55565C275.922 6.90233 277.076 6.5182 278.643 6.18929C280.404 5.81906 283.715 5.81497 285.449 6.18029C287.32 6.57506 289.525 7.39529 290.767 8.16029L291.137 8.38692L290.29 8.34438C288.606 8.25929 286.152 8.9396 283.518 10.2209C282.723 10.6079 282.033 10.9163 281.982 10.9082C281.932 10.8983 281.284 10.5829 280.542 10.2066H280.544Z" fill="white"/>
</g>
<path d="M330.952 36H327.28L320.476 24.84L313.564 36H310.144L318.676 22.608L310.684 10.296H314.284L320.584 20.376L326.92 10.296H330.34L322.384 22.536L330.952 36ZM341.93 10.296C344.066 10.296 345.854 10.5 347.294 10.908C348.758 11.316 349.85 11.988 350.57 12.924C351.314 13.86 351.686 15.108 351.686 16.668C351.686 17.676 351.494 18.576 351.11 19.368C350.75 20.136 350.198 20.784 349.454 21.312C348.734 21.816 347.846 22.164 346.79 22.356V22.536C347.87 22.704 348.842 23.016 349.706 23.472C350.594 23.928 351.29 24.576 351.794 25.416C352.298 26.256 352.55 27.348 352.55 28.692C352.55 30.252 352.19 31.584 351.47 32.688C350.75 33.768 349.718 34.596 348.374 35.172C347.054 35.724 345.47 36 343.622 36H334.586V10.296H341.93ZM342.578 21.24C344.786 21.24 346.298 20.892 347.114 20.196C347.93 19.476 348.338 18.42 348.338 17.028C348.338 15.612 347.834 14.604 346.826 14.004C345.842 13.38 344.258 13.068 342.074 13.068H337.826V21.24H342.578ZM337.826 23.94V33.264H343.01C345.29 33.264 346.874 32.82 347.762 31.932C348.65 31.044 349.094 29.88 349.094 28.44C349.094 27.528 348.89 26.736 348.482 26.064C348.098 25.392 347.438 24.876 346.502 24.516C345.59 24.132 344.342 23.94 342.758 23.94H337.826ZM380.428 23.112C380.428 25.104 380.176 26.916 379.672 28.548C379.168 30.156 378.412 31.548 377.404 32.724C376.42 33.9 375.184 34.8 373.696 35.424C372.232 36.048 370.528 36.36 368.584 36.36C366.568 36.36 364.816 36.048 363.328 35.424C361.84 34.776 360.604 33.876 359.62 32.724C358.636 31.548 357.904 30.144 357.424 28.512C356.944 26.88 356.704 25.068 356.704 23.076C356.704 20.436 357.136 18.132 358 16.164C358.864 14.196 360.172 12.66 361.924 11.556C363.7 10.452 365.932 9.9 368.62 9.9C371.188 9.9 373.348 10.452 375.1 11.556C376.852 12.636 378.172 14.172 379.06 16.164C379.972 18.132 380.428 20.448 380.428 23.112ZM360.124 23.112C360.124 25.272 360.424 27.132 361.024 28.692C361.624 30.252 362.548 31.452 363.796 32.292C365.068 33.132 366.664 33.552 368.584 33.552C370.528 33.552 372.112 33.132 373.336 32.292C374.584 31.452 375.508 30.252 376.108 28.692C376.708 27.132 377.008 25.272 377.008 23.112C377.008 19.872 376.336 17.34 374.992 15.516C373.648 13.668 371.524 12.744 368.62 12.744C366.676 12.744 365.068 13.164 363.796 14.004C362.548 14.82 361.624 16.008 361.024 17.568C360.424 19.104 360.124 20.952 360.124 23.112ZM402.882 36H399.21L392.406 24.84L385.494 36H382.074L390.606 22.608L382.614 10.296H386.214L392.514 20.376L398.85 10.296H402.27L394.314 22.536L402.882 36ZM431.642 29.124C431.642 30.66 431.27 31.968 430.526 33.048C429.782 34.104 428.714 34.92 427.322 35.496C425.954 36.072 424.334 36.36 422.462 36.36C421.502 36.36 420.578 36.312 419.69 36.216C418.826 36.12 418.034 35.988 417.314 35.82C416.594 35.628 415.958 35.4 415.406 35.136V32.04C416.27 32.424 417.338 32.772 418.61 33.084C419.906 33.396 421.238 33.552 422.606 33.552C423.878 33.552 424.946 33.384 425.81 33.048C426.674 32.712 427.322 32.232 427.754 31.608C428.186 30.984 428.402 30.252 428.402 29.412C428.402 28.572 428.222 27.864 427.862 27.288C427.502 26.712 426.878 26.184 425.99 25.704C425.126 25.2 423.914 24.672 422.354 24.12C421.25 23.712 420.278 23.28 419.438 22.824C418.622 22.344 417.938 21.804 417.386 21.204C416.834 20.604 416.414 19.92 416.126 19.152C415.862 18.384 415.73 17.496 415.73 16.488C415.73 15.12 416.078 13.956 416.774 12.996C417.47 12.012 418.43 11.256 419.654 10.728C420.902 10.2 422.33 9.936 423.938 9.936C425.354 9.936 426.65 10.068 427.826 10.332C429.002 10.596 430.07 10.944 431.03 11.376L430.022 14.148C429.134 13.764 428.162 13.44 427.106 13.176C426.074 12.912 424.994 12.78 423.866 12.78C422.786 12.78 421.886 12.936 421.166 13.248C420.446 13.56 419.906 14.004 419.546 14.58C419.186 15.132 419.006 15.78 419.006 16.524C419.006 17.388 419.186 18.108 419.546 18.684C419.906 19.26 420.494 19.776 421.31 20.232C422.126 20.688 423.23 21.18 424.622 21.708C426.134 22.26 427.406 22.86 428.438 23.508C429.494 24.132 430.286 24.888 430.814 25.776C431.366 26.664 431.642 27.78 431.642 29.124ZM451.184 36H436.82V10.296H451.184V13.14H440.06V21.168H450.536V23.976H440.06V33.156H451.184V36ZM463.916 10.296C466.052 10.296 467.804 10.572 469.172 11.124C470.564 11.652 471.596 12.456 472.268 13.536C472.94 14.616 473.276 15.972 473.276 17.604C473.276 18.972 473.024 20.112 472.52 21.024C472.016 21.936 471.368 22.668 470.576 23.22C469.808 23.748 468.992 24.168 468.128 24.48L475.184 36H471.404L465.176 25.38H460.064V36H456.824V10.296H463.916ZM463.736 13.104H460.064V22.644H463.916C465.308 22.644 466.448 22.464 467.336 22.104C468.224 21.72 468.872 21.168 469.28 20.448C469.712 19.728 469.928 18.828 469.928 17.748C469.928 16.62 469.7 15.72 469.244 15.048C468.812 14.376 468.14 13.884 467.228 13.572C466.316 13.26 465.152 13.104 463.736 13.104ZM486.455 36H477.167V34.128L480.191 33.444V12.888L477.167 12.168V10.296H486.455V12.168L483.431 12.888V33.444L486.455 34.128V36ZM505.782 36H491.418V10.296H505.782V13.14H494.658V21.168H505.134V23.976H494.658V33.156H505.782V36ZM526.002 29.124C526.002 30.66 525.63 31.968 524.886 33.048C524.142 34.104 523.074 34.92 521.682 35.496C520.314 36.072 518.694 36.36 516.822 36.36C515.862 36.36 514.938 36.312 514.05 36.216C513.186 36.12 512.394 35.988 511.674 35.82C510.954 35.628 510.318 35.4 509.766 35.136V32.04C510.63 32.424 511.698 32.772 512.97 33.084C514.266 33.396 515.598 33.552 516.966 33.552C518.238 33.552 519.306 33.384 520.17 33.048C521.034 32.712 521.682 32.232 522.114 31.608C522.546 30.984 522.762 30.252 522.762 29.412C522.762 28.572 522.582 27.864 522.222 27.288C521.862 26.712 521.238 26.184 520.35 25.704C519.486 25.2 518.274 24.672 516.714 24.12C515.61 23.712 514.638 23.28 513.798 22.824C512.982 22.344 512.298 21.804 511.746 21.204C511.194 20.604 510.774 19.92 510.486 19.152C510.222 18.384 510.09 17.496 510.09 16.488C510.09 15.12 510.438 13.956 511.134 12.996C511.83 12.012 512.79 11.256 514.014 10.728C515.262 10.2 516.69 9.936 518.298 9.936C519.714 9.936 521.01 10.068 522.186 10.332C523.362 10.596 524.43 10.944 525.39 11.376L524.382 14.148C523.494 13.764 522.522 13.44 521.466 13.176C520.434 12.912 519.354 12.78 518.226 12.78C517.146 12.78 516.246 12.936 515.526 13.248C514.806 13.56 514.266 14.004 513.906 14.58C513.546 15.132 513.366 15.78 513.366 16.524C513.366 17.388 513.546 18.108 513.906 18.684C514.266 19.26 514.854 19.776 515.67 20.232C516.486 20.688 517.59 21.18 518.982 21.708C520.494 22.26 521.766 22.86 522.798 23.508C523.854 24.132 524.646 24.888 525.174 25.776C525.726 26.664 526.002 27.78 526.002 29.124ZM559.186 36H555.514L548.71 24.84L541.798 36H538.378L546.91 22.608L538.918 10.296H542.518L548.818 20.376L555.154 10.296H558.574L550.618 22.536L559.186 36ZM565.556 36H562.388V8.64H565.556V36ZM586.681 29.124C586.681 30.66 586.309 31.968 585.565 33.048C584.821 34.104 583.753 34.92 582.361 35.496C580.993 36.072 579.373 36.36 577.501 36.36C576.541 36.36 575.617 36.312 574.729 36.216C573.865 36.12 573.073 35.988 572.353 35.82C571.633 35.628 570.997 35.4 570.445 35.136V32.04C571.309 32.424 572.377 32.772 573.649 33.084C574.945 33.396 576.277 33.552 577.645 33.552C578.917 33.552 579.985 33.384 580.849 33.048C581.713 32.712 582.361 32.232 582.793 31.608C583.225 30.984 583.441 30.252 583.441 29.412C583.441 28.572 583.261 27.864 582.901 27.288C582.541 26.712 581.917 26.184 581.029 25.704C580.165 25.2 578.953 24.672 577.393 24.12C576.289 23.712 575.317 23.28 574.477 22.824C573.661 22.344 572.977 21.804 572.425 21.204C571.873 20.604 571.453 19.92 571.165 19.152C570.901 18.384 570.769 17.496 570.769 16.488C570.769 15.12 571.117 13.956 571.813 12.996C572.509 12.012 573.469 11.256 574.693 10.728C575.941 10.2 577.369 9.936 578.977 9.936C580.393 9.936 581.689 10.068 582.865 10.332C584.041 10.596 585.109 10.944 586.069 11.376L585.061 14.148C584.173 13.764 583.201 13.44 582.145 13.176C581.113 12.912 580.033 12.78 578.905 12.78C577.825 12.78 576.925 12.936 576.205 13.248C575.485 13.56 574.945 14.004 574.585 14.58C574.225 15.132 574.045 15.78 574.045 16.524C574.045 17.388 574.225 18.108 574.585 18.684C574.945 19.26 575.533 19.776 576.349 20.232C577.165 20.688 578.269 21.18 579.661 21.708C581.173 22.26 582.445 22.86 583.477 23.508C584.533 24.132 585.325 24.888 585.853 25.776C586.405 26.664 586.681 27.78 586.681 29.124Z" fill="white"/>
<defs>
<clipPath id="clip0_43_164">
<rect width="61" height="47" fill="white"/>
</clipPath>
<clipPath id="clip1_43_164">
<rect width="61" height="47" fill="white"/>
</clipPath>
<clipPath id="clip2_43_164">
<rect width="36" height="36" fill="white" transform="translate(264 5.5)"/>
</clipPath>
</defs>
</svg>
