<svg width="1916" height="144" viewBox="0 0 1916 144" fill="none" xmlns="http://www.w3.org/2000/svg">
<path opacity="0.25" d="M0 0V55.548C76.3047 82.188 165.399 94.152 252.273 89.148C364.615 82.704 469.947 49.176 582.464 44.148C700.362 38.916 818.036 64.404 930.857 86.46C1041.46 108.06 1151.68 116.316 1265.2 102.156C1322.92 94.956 1376.73 80.748 1431.97 66.948C1579.89 30 1777.09 -17.148 1916 62.964V0H0Z" fill="#841B1B"/>
<path opacity="0.5" d="M0 0V18.972C20.7567 44.304 44.1319 68.232 76.145 86.46C158.725 133.524 263.45 133.2 358.579 109.896C408.316 97.716 454.523 78.612 501.753 62.136C567.088 39.336 637.038 6.936 710.644 2.532C768.54 -0.888 823.848 13.836 868.076 40.404C918.802 70.872 967.58 114.804 1033.54 128.004C1098.11 140.952 1163.43 119.976 1223.75 98.868C1284.07 77.76 1343.75 52.068 1410.43 47.208C1505.8 40.188 1591.3 74.664 1680.11 93.816C1728.33 104.208 1774.31 101.22 1819.16 84.816C1854.98 71.748 1895.8 52.5 1916 25.728V0H0Z" fill="#841B1B"/>
<path d="M0 0V6.756C239.388 70.8 501.497 85.584 759.742 51.084C828.399 41.916 894.229 26.94 963.493 19.332C1057.7 8.976 1143.09 34.02 1227.84 61.812C1321.93 92.664 1414.65 114.288 1518.75 108C1656.91 99.6 1794.11 53.148 1916 6.228V0H0Z" fill="#841B1B"/>
</svg>
